<?xml version="1.0" encoding="utf-8"?>
<!-- Generator: Adobe Illustrator 18.1.1, SVG Export Plug-In . SVG Version: 6.00 Build 0)  -->
<svg version="1.1" id="Слой_1" xmlns="http://www.w3.org/2000/svg" xmlns:xlink="http://www.w3.org/1999/xlink" x="0px" y="0px"
	 viewBox="0 0 14.7 12.7" enable-background="new 0 0 14.7 12.7" xml:space="preserve">
<rect x="-1699.4" y="-30.2" fill="#FFFFFF" width="1018" height="263"/>
<rect x="-1676.8" y="-3.5" opacity="0.29" fill="none" stroke="#1469EB" stroke-miterlimit="10" width="963.6" height="31.2"/>
<g>
	<g>
		<linearGradient id="SVGID_1_" gradientUnits="userSpaceOnUse" x1="-1279.6008" y1="164.2594" x2="-1159.6008" y2="164.2594">
			<stop  offset="0" style="stop-color:#666666;stop-opacity:0"/>
			<stop  offset="0.4975" style="stop-color:#666666"/>
			<stop  offset="1" style="stop-color:#666666;stop-opacity:0"/>
		</linearGradient>
		
			<line fill="none" stroke="url(#SVGID_1_)" stroke-miterlimit="10" stroke-dasharray="2" x1="-1159.6" y1="164.3" x2="-1279.6" y2="164.3"/>
	</g>
	<g>
		<text transform="matrix(1 0 0 1 -1260.7673 17.5344)"><tspan x="0" y="0" fill="#737373" font-family="'OpenSans'" font-size="14">КЛИЕНТАМ</tspan><tspan x="-32.5" y="45" fill="#8D8D8D" font-family="'OpenSans'" font-size="12">Депозитная программа</tspan><tspan x="1" y="73" fill="#8D8D8D" font-family="'OpenSans'" font-size="12">Партнерство</tspan><tspan x="-14.9" y="101" fill="#8D8D8D" font-family="'OpenSans'" font-size="12">Бонусная система</tspan><tspan x="-11.9" y="129" fill="#8D8D8D" font-family="'OpenSans'" font-size="12">Новости проекта</tspan></text>
	</g>
</g>
<g>
	<g>
		<linearGradient id="SVGID_2_" gradientUnits="userSpaceOnUse" x1="-1092.2072" y1="136.6346" x2="-972.2072" y2="136.6346">
			<stop  offset="0" style="stop-color:#666666;stop-opacity:0"/>
			<stop  offset="0.4975" style="stop-color:#666666"/>
			<stop  offset="1" style="stop-color:#666666;stop-opacity:0"/>
		</linearGradient>
		
			<line fill="none" stroke="url(#SVGID_2_)" stroke-miterlimit="10" stroke-dasharray="2" x1="-972.2" y1="136.6" x2="-1092.2" y2="136.6"/>
	</g>
	<g>
		<text transform="matrix(1 0 0 1 -1068.2881 17.2715)"><tspan x="0" y="0" fill="#737373" font-family="'OpenSans'" font-size="14">УСЛОВИЯ</tspan><tspan x="-6.8" y="45" fill="#8D8D8D" font-family="'OpenSans'" font-size="12">Безопасность</tspan><tspan x="-2.6" y="73" fill="#8D8D8D" font-family="'OpenSans'" font-size="12">Соглашение</tspan><tspan x="6.6" y="101" fill="#8D8D8D" font-family="'OpenSans'" font-size="12">Гарантии</tspan></text>
	</g>
</g>
<g>
	<g>
		<linearGradient id="SVGID_3_" gradientUnits="userSpaceOnUse" x1="-1466.5144" y1="192.6632" x2="-1346.5144" y2="192.6632">
			<stop  offset="0" style="stop-color:#666666;stop-opacity:0"/>
			<stop  offset="0.4975" style="stop-color:#666666"/>
			<stop  offset="1" style="stop-color:#666666;stop-opacity:0"/>
		</linearGradient>
		
			<line fill="none" stroke="url(#SVGID_3_)" stroke-miterlimit="10" stroke-dasharray="2" x1="-1346.5" y1="192.7" x2="-1466.5" y2="192.7"/>
	</g>
	<g>
		<text transform="matrix(1 0 0 1 -1443.552 17.2715)"><tspan x="0" y="0" fill="#737373" font-family="'OpenSans'" font-size="14">Проекты</tspan><tspan x="-6.4" y="45" fill="#8D8D8D" font-family="'OpenSans'" font-size="12">Обмен валют</tspan><tspan x="-9" y="73" fill="#8D8D8D" font-family="'OpenSans'" font-size="12">Гарант сделок</tspan><tspan x="-17.9" y="101" fill="#8D8D8D" font-family="'OpenSans'" font-size="12">Оплата сервисов</tspan><tspan x="-17.7" y="129" fill="#8D8D8D" font-family="'OpenSans'" font-size="12">Онлайн ломбард</tspan><tspan x="-3.3" y="157" fill="#8D8D8D" font-family="'OpenSans'" font-size="12">База знаний</tspan></text>
	</g>
</g>
<g>
	<g>
		<linearGradient id="SVGID_4_" gradientUnits="userSpaceOnUse" x1="-1653.6681" y1="136.6346" x2="-1533.6681" y2="136.6346">
			<stop  offset="0" style="stop-color:#666666;stop-opacity:0"/>
			<stop  offset="0.4975" style="stop-color:#666666"/>
			<stop  offset="1" style="stop-color:#666666;stop-opacity:0"/>
		</linearGradient>
		
			<line fill="none" stroke="url(#SVGID_4_)" stroke-miterlimit="10" stroke-dasharray="2" x1="-1533.7" y1="136.6" x2="-1653.7" y2="136.6"/>
	</g>
	<g>
		<text transform="matrix(1 0 0 1 -1640.2397 17.2715)"><tspan x="0" y="0" fill="#737373" font-family="'OpenSans'" font-size="14">Поддержка</tspan><tspan x="24" y="45" fill="#8D8D8D" font-family="'OpenSans'" font-size="12">Тикеты</tspan><tspan x="-11" y="73" fill="#8D8D8D" font-family="'OpenSans'" font-size="12">Вопросы и ответы</tspan><tspan x="8.8" y="101" fill="#8D8D8D" font-family="'OpenSans'" font-size="12">Инструкции</tspan></text>
	</g>
</g>
<g>
	<g>
		<linearGradient id="SVGID_5_" gradientUnits="userSpaceOnUse" x1="-905.0535" y1="108.4792" x2="-785.0535" y2="108.4792">
			<stop  offset="0" style="stop-color:#666666;stop-opacity:0"/>
			<stop  offset="0.4975" style="stop-color:#666666"/>
			<stop  offset="1" style="stop-color:#666666;stop-opacity:0"/>
		</linearGradient>
		
			<line fill="none" stroke="url(#SVGID_5_)" stroke-miterlimit="10" stroke-dasharray="2" x1="-785.1" y1="108.5" x2="-905.1" y2="108.5"/>
	</g>
	<g>
		<text transform="matrix(1 0 0 1 -887.6646 17.2715)"><tspan x="0" y="0" fill="#737373" font-family="'OpenSans'" font-size="14">Контакты</tspan><tspan x="-8.3" y="45" fill="#8D8D8D" font-family="'OpenSans'" font-size="12">office@any.cash</tspan><tspan x="-7.2" y="73" fill="#8D8D8D" font-family="'OpenSans'" font-size="12">+380504345568</tspan></text>
	</g>
</g>
<g>
	<g>
		<rect x="-1501.8" y="15" fill="#1469EB" width="3.4" height="2.6"/>
		<polygon fill="#1469EB" points="-1500.1,6.6 -1493.6,13.7 -1493.6,17.5 -1500.1,10.7 -1506.6,17.5 -1506.6,13.7 		"/>
	</g>
</g>
<g>
	<g>
		<rect x="-1314.6" y="15" fill="#1469EB" width="3.4" height="2.6"/>
		<polygon fill="#1469EB" points="-1312.9,6.6 -1306.4,13.7 -1306.4,17.5 -1312.9,10.7 -1319.5,17.5 -1319.5,13.7 		"/>
	</g>
</g>
<g>
	<g>
		<rect x="-1127.5" y="15" fill="#1469EB" width="3.4" height="2.6"/>
		<polygon fill="#1469EB" points="-1125.8,6.6 -1119.3,13.7 -1119.3,17.5 -1125.8,10.7 -1132.3,17.5 -1132.3,13.7 		"/>
	</g>
</g>
<g>
	<g>
		<rect x="-940.3" y="15" fill="#1469EB" width="3.4" height="2.6"/>
		<polygon fill="#1469EB" points="-938.6,6.6 -932.1,13.7 -932.1,17.5 -938.6,10.7 -945.2,17.5 -945.2,13.7 		"/>
	</g>
</g>
<g>
	<g>
		<rect x="-753.2" y="15" fill="#1469EB" width="3.4" height="2.6"/>
		<polygon fill="#1469EB" points="-751.5,6.6 -744.9,13.7 -744.9,17.5 -751.5,10.7 -758,17.5 -758,13.7 		"/>
	</g>
</g>
<g opacity="0.6">
	<path fill="#1469EB" d="M-741.2,129.6c-0.8,0.3-1.6,0.6-2.4,0.7c0.9-0.5,1.5-1.3,1.8-2.3c-0.8,0.5-1.7,0.8-2.7,1
		c-0.8-0.8-1.9-1.3-3.1-1.3c-2.3,0-4.2,1.9-4.2,4.2c0,0.3,0,0.7,0.1,1c-3.5-0.2-6.6-1.9-8.6-4.4c-0.4,0.6-0.6,1.3-0.6,2.1
		c0,1.5,0.7,2.8,1.9,3.5c-0.7,0-1.3-0.2-1.9-0.5c0,0,0,0,0,0.1c0,2,1.4,3.7,3.4,4.1c-0.4,0.1-0.7,0.1-1.1,0.1c-0.3,0-0.5,0-0.8-0.1
		c0.5,1.7,2.1,2.9,3.9,2.9c-1.4,1.1-3.2,1.8-5.2,1.8c-0.3,0-0.7,0-1-0.1c1.9,1.2,4.1,1.9,6.4,1.9c7.7,0,11.9-6.4,11.9-12
		c0-0.2,0-0.4,0-0.5C-742.5,131.2-741.8,130.4-741.2,129.6L-741.2,129.6z"/>
</g>
<g>
	<polygon opacity="0.6" fill="#1469EB" points="-739.8,167.8 -743.4,167.8 -743.4,164.3 -744.6,164.3 -744.6,167.8 -748.2,167.9 
		-748.2,169 -744.6,169 -744.6,172.6 -743.4,172.6 -743.4,169 -739.8,169 -739.8,167.8 	"/>
	<path opacity="0.6" fill="#1469EB" d="M-754.5,175.5c-0.5-0.3-1.4-1.1-1.4-1.6c0-0.6,0.2-0.8,1-1.5c0.8-0.7,1.5-1.6,1.5-2.7
		c0-1.3-0.6-2.6-1.7-3h1.6l1.1-0.8c0,0-3.9,0-5.1,0c-2.3,0-4.5,1.8-4.5,3.8c0,2.1,1.6,3.8,3.9,3.8c0.2,0,0.3,0,0.5,0
		c-0.2,0.3-0.3,0.6-0.3,1c0,0.6,0.3,1,0.7,1.4c-0.3,0-0.6,0-0.9,0c-2.9,0-5,1.8-5,3.7c0,1.9,2.4,3,5.3,3c3.3,0,5-1.9,5-3.7
		C-752.7,177.4-753.2,176.5-754.5,175.5L-754.5,175.5z M-757.3,173L-757.3,173c-1.3,0-2.6-1.5-2.8-3.2c-0.2-1.7,0.7-3.1,2-3
		c1.3,0,2.6,1.4,2.8,3.2C-755,171.6-755.9,173-757.3,173L-757.3,173z M-757.8,181.8L-757.8,181.8c-2,0-3.4-1.3-3.4-2.8
		c0-1.5,1.8-2.7,3.7-2.7c0.5,0,0.9,0.1,1.3,0.2c1.1,0.7,1.8,1.2,2.1,2c0,0.2,0.1,0.4,0.1,0.5C-754,180.6-755,181.8-757.8,181.8
		L-757.8,181.8z"/>
</g>
<g opacity="0.6">
	<path fill-rule="evenodd" clip-rule="evenodd" fill="#1469EB" d="M-758.1,52.6h7.6c2.5,0,4.6,1.2,4.6,3.7c0,2.1-0.7,2.9-2.3,3.8
		c0.1,0.1,1,0.4,1.3,0.5c0.5,0.2,0.8,0.5,1.1,0.8c0.9,0.9,1,1.7,1,3.1c0,3.2-3.1,4.8-6.1,4.8h-7.2L-758.1,52.6L-758.1,52.6z
		 M-753.9,57l0,2.2c2,0,3.8,0.3,3.8-1.9c0-2-2.1-1.6-3.8-1.6L-753.9,57L-753.9,57z M-753.9,66.2c2.1,0,4.8,0.4,4.8-2.1
		c0-2.5-2.7-2.1-4.8-2.1L-753.9,66.2L-753.9,66.2z"/>
</g>
<path opacity="0.6" fill="#1469EB" d="M-755.4,95.6h1.7v-0.8v-0.8v-0.1c0-0.7,0-1.9,0.6-2.6c0.6-0.7,1.3-1.3,2.7-1.3
	c2.2,0,3.1,0.3,3.1,0.3l-0.4,2.6c0,0-0.7-0.2-1.4-0.2c-0.7,0-1.3,0.2-1.3,0.9v0.3v0.9v0.8h2.7l-0.2,2.5h-2.5v8.7h-3.2v-8.7h-1.7
	V95.6L-755.4,95.6z"/>
<rect x="-487.2" y="-30.2" fill="#FFFFFF" width="333.7" height="609"/>
<rect x="-477.1" y="-6.1" opacity="0.29" fill="none" stroke="#3B69E9" stroke-miterlimit="10" width="314.5" height="31.2"/>
<text transform="matrix(1 0 0 1 -444.9755 13.8625)"><tspan x="0" y="0" fill="#737373" font-family="'OpenSans'" font-size="14">Поддержка</tspan><tspan x="24" y="45" fill="#8B8B8B" font-family="'OpenSans'" font-size="12">Тикеты</tspan><tspan x="-11" y="73" fill="#8B8B8B" font-family="'OpenSans'" font-size="12">Вопросы и ответы</tspan><tspan x="8.8" y="101" fill="#8B8B8B" font-family="'OpenSans'" font-size="12">Инструкции</tspan></text>
<g>
	<g>
		<rect x="-321.6" y="9" fill="#3B69E9" width="3.4" height="2.6"/>
		<polygon fill="#3B69E9" points="-319.8,0.6 -313.3,7.7 -313.3,11.5 -319.8,4.7 -326.4,11.5 -326.4,7.7 		"/>
	</g>
</g>
<g>
	<g>
		<rect x="5.7" y="9" fill="#3B69E9" width="3.4" height="2.6"/>
		<polygon fill="#3B69E9" points="7.4,0.6 13.9,7.7 13.9,11.6 7.4,4.8 0.9,11.6 0.9,7.7 		"/>
	</g>
</g>
<rect x="-477.1" y="144.9" opacity="0.29" fill="none" stroke="#3B69E9" stroke-miterlimit="10" width="314.5" height="31.2"/>
<rect x="-477.1" y="353.6" opacity="0.29" fill="none" stroke="#3B69E9" stroke-miterlimit="10" width="314.5" height="31.2"/>
<g>
	<g>
		<rect x="-321.6" y="160" fill="#3B69E9" width="3.4" height="2.6"/>
		<polygon fill="#3B69E9" points="-319.8,151.6 -313.3,158.7 -313.3,162.5 -319.8,155.7 -326.4,162.5 -326.4,158.7 		"/>
	</g>
</g>
<g>
	<g>
		<rect x="-415" y="372.1" fill="#3B69E9" width="3.4" height="2.6"/>
		<polygon fill="#3B69E9" points="-413.3,363.7 -406.8,370.8 -406.8,374.6 -413.3,367.8 -419.8,374.6 -419.8,370.8 		"/>
	</g>
</g>
<g>
	<g>
		<rect x="-229.6" y="372.1" fill="#3B69E9" width="3.4" height="2.6"/>
		<polygon fill="#3B69E9" points="-227.9,363.7 -221.4,370.8 -221.4,374.6 -227.9,367.8 -234.4,374.6 -234.4,370.8 		"/>
	</g>
</g>
<text transform="matrix(1 0 0 1 -437.999 165.5105)"><tspan x="0" y="0" fill="#737373" font-family="'OpenSans'" font-size="14">Проекты</tspan><tspan x="-6.4" y="45" fill="#8B8B8B" font-family="'OpenSans'" font-size="12">Обмен валют</tspan><tspan x="-9" y="73" fill="#8B8B8B" font-family="'OpenSans'" font-size="12">Гарант сделок</tspan><tspan x="-17.9" y="101" fill="#8B8B8B" font-family="'OpenSans'" font-size="12">Оплата сервисов</tspan><tspan x="-17.7" y="129" fill="#8B8B8B" font-family="'OpenSans'" font-size="12">Онлайн ломбард</tspan><tspan x="-3.3" y="157" fill="#8B8B8B" font-family="'OpenSans'" font-size="12">База знаний</tspan></text>
<text transform="matrix(1 0 0 1 -279.6788 13.8628)"><tspan x="0" y="0" fill="#737373" font-family="'OpenSans'" font-size="14">УСЛОВИЯ</tspan><tspan x="-6.8" y="45" fill="#8B8B8B" font-family="'OpenSans'" font-size="12">Безопасность</tspan><tspan x="-2.6" y="73" fill="#8B8B8B" font-family="'OpenSans'" font-size="12">Соглашение</tspan><tspan x="6.6" y="101" fill="#8B8B8B" font-family="'OpenSans'" font-size="12">Гарантии</tspan></text>
<text transform="matrix(1 0 0 1 -282.8579 165.5106)"><tspan x="0" y="0" fill="#737373" font-family="'OpenSans'" font-size="14">КЛИЕНТАМ</tspan><tspan x="-32.5" y="45" fill="#8B8B8B" font-family="'OpenSans'" font-size="12">Депозитная программа</tspan><tspan x="1" y="73" fill="#8B8B8B" font-family="'OpenSans'" font-size="12">Партнерство</tspan><tspan x="-14.9" y="101" fill="#8B8B8B" font-family="'OpenSans'" font-size="12">Бонусная система</tspan><tspan x="-11.9" y="129" fill="#8B8B8B" font-family="'OpenSans'" font-size="12">Новости проекта</tspan></text>
<text transform="matrix(1 0 0 1 -360.1163 374.7902)"><tspan x="0" y="0" fill="#737373" font-family="'OpenSans'" font-size="14">Контакты</tspan><tspan x="-8.3" y="45" fill="#8B8B8B" font-family="'OpenSans'" font-size="12">office@any.cash</tspan><tspan x="-7.2" y="73" fill="#8B8B8B" font-family="'OpenSans'" font-size="12">+380504345568</tspan></text>
<g>
	<g>
		<g>
			<path fill="#3B69E9" d="M-259.2,500.8c-1.6,0.7-3.3,1.2-5,1.4c1.8-1.1,3.2-2.8,3.9-4.9c-1.7,1-3.6,1.8-5.6,2.1
				c-1.6-1.7-3.9-2.8-6.4-2.8c-4.9,0-8.8,4-8.8,8.9c0,0.7,0.1,1.4,0.2,2c-7.3-0.4-13.8-3.9-18.1-9.2c-0.8,1.3-1.2,2.8-1.2,4.5
				c0,3.1,1.6,5.8,3.9,7.4c-1.4,0-2.8-0.4-4-1.1c0,0,0,0.1,0,0.1c0,4.3,3,7.9,7.1,8.7c-0.7,0.2-1.5,0.3-2.3,0.3
				c-0.6,0-1.1-0.1-1.7-0.2c1.1,3.5,4.4,6.1,8.2,6.1c-3,2.4-6.8,3.8-10.9,3.8c-0.7,0-1.4,0-2.1-0.1c3.9,2.5,8.5,4,13.5,4
				c16.2,0,25-13.5,25-25.2c0-0.4,0-0.8,0-1.1C-261.8,504.2-260.3,502.6-259.2,500.8L-259.2,500.8z"/>
		</g>
		<g>
			<polygon fill="#3B69E9" points="-171.9,504.6 -179.8,504.6 -179.8,496.7 -182.4,496.7 -182.4,504.6 -190.3,504.7 -190.3,507.2 
				-182.4,507.2 -182.4,515.1 -179.8,515.1 -179.8,507.2 -171.9,507.2 -171.9,504.6 			"/>
			<path fill="#3B69E9" d="M-197.7,517.1c-1-0.7-2.9-2.4-2.9-3.4c0-1.2,0.3-1.8,2.1-3.1c1.8-1.4,3.1-3.4,3.1-5.7
				c0-2.8-1.2-5.5-3.5-6.3h3.5l2.4-1.8c0,0-8.2,0-10.9,0c-4.9,0-9.5,3.7-9.5,8c0,4.4,3.3,8,8.3,8c0.3,0,0.7,0,1,0
				c-0.3,0.6-0.6,1.3-0.6,2c0,1.2,0.7,2.2,1.5,3c-0.6,0-1.2,0-1.9,0c-6.1,0-10.7,3.9-10.7,7.9c0,4,5.1,6.4,11.2,6.4
				c6.9,0,10.7-3.9,10.7-7.9C-193.8,521-194.8,519.1-197.7,517.1L-197.7,517.1z M-203.5,511.6L-203.5,511.6c-2.8-0.1-5.5-3.2-6-6.9
				c-0.5-3.7,1.4-6.6,4.2-6.5c2.8,0.1,5.5,3.1,6,6.8C-198.8,508.7-200.7,511.7-203.5,511.6L-203.5,511.6z M-204.6,530.4
				L-204.6,530.4c-4.2,0-7.2-2.7-7.2-5.9c0-3.1,3.7-5.8,7.9-5.7c1,0,1.9,0.2,2.7,0.4c2.3,1.6,3.9,2.5,4.4,4.3
				c0.1,0.4,0.1,0.7,0.1,1.1C-196.6,527.9-198.7,530.4-204.6,530.4L-204.6,530.4z"/>
		</g>
		<g>
			<path fill-rule="evenodd" clip-rule="evenodd" fill="#3B69E9" d="M-467.7,496.7h15.5c5.1,0,9.4,2.5,9.4,7.5
				c0,4.2-1.5,5.9-4.7,7.7c0.3,0.2,2.1,0.8,2.7,1.1c1,0.5,1.5,1,2.2,1.6c1.8,1.8,2.1,3.5,2.1,6.3c0,6.6-6.4,9.9-12.5,9.9h-14.8
				L-467.7,496.7L-467.7,496.7z M-459.3,505.7l0,4.4c4,0,7.7,0.5,7.7-3.8c0-4-4.2-3.3-7.7-3.3L-459.3,505.7L-459.3,505.7z
				 M-459.3,524.5c4.4,0,9.8,0.7,9.9-4.2c0.1-5.2-5.5-4.2-9.9-4.2L-459.3,524.5L-459.3,524.5z"/>
		</g>
		<path fill="#3B69E9" d="M-375.7,507.7h3.6V506v-1.6v-0.3c0-1.5,0-3.9,1.2-5.4c1.2-1.6,2.8-2.6,5.5-2.6c4.5,0,6.4,0.6,6.4,0.6
			l-0.9,5.3c0,0-1.5-0.4-2.9-0.4c-1.4,0-2.6,0.5-2.6,1.9v0.6v1.9v1.6h5.7l-0.4,5.2h-5.3v18.1h-6.7v-18.1h-3.6V507.7L-375.7,507.7z"
			/>
	</g>
</g>
</svg>
