<?xml version="1.0" encoding="utf-8"?>
<!-- Generator: Adobe Illustrator 18.1.1, SVG Export Plug-In . SVG Version: 6.00 Build 0)  -->
<svg version="1.1" id="Слой_1" xmlns="http://www.w3.org/2000/svg" xmlns:xlink="http://www.w3.org/1999/xlink" x="0px" y="0px"
	 viewBox="0 0 612 792" enable-background="new 0 0 612 792" xml:space="preserve">
<g>
	<g>
		<path fill="none" stroke="#1469EB" stroke-width="2" stroke-miterlimit="10" d="M115.6,332.1c2.7,0,5.4,0,8.2,0
			c4.8,0,6.8-2,7.5-6.8c0-5.4,0-10.9,0-15.6c0-4.8-2-6.1-6.8-6.8c-2.7,0-4.8,0-7.5,0c0,0,0,0-0.7-0.7c0-1.4,0-2.7,0-4.1
			c0-27.2,0-54.4,0-80.9c0-5.4,1.4-10.2,5.4-14.3c12.9-14.3,25.8-29.2,38.8-44.2c3.4-4.1,7.5-5.4,12.9-5.4c102,0,204.7,0,306.7,0
			c6.8,0,8.2,1.4,8.2,6.8c0,40.1,0,80.2,0,120.4c0,1.4,0,2.7-0.7,4.1c-3.4,0-6.8,0-9.5,0c-4.8,0-7.5,2-7.5,6.8c0,20.4,0,40.8,0,60.5
			c0,4.1,2.7,6.8,7.5,6.8c2.7,0,6.1,0,9.5,0c0,2,0,3.4,0,4.8c0,85.7,0,171.4,0,257c0,6.1-1.4,7.5-8.2,7.5c-118.3,0-237.3,0-355.6,0
			c-6.8,0-8.2-1.4-8.2-7.5c0-94.5,0-188.4,0-282.9C114.9,335.5,114.9,334.1,115.6,332.1z"/>
		<path fill="none" stroke="#1469EB" stroke-miterlimit="10" d="M203.3,213.8c0,11.6,0,22.4,0,34c0,2.7,1.4,4.1,4.8,4.1
			c6.8,0,13.6,0,20.4,0c3.4,0,4.8-0.7,4.8-4.1c0-22.4,0-45.6,0-68c0-2.7-1.4-4.1-4.8-4.1c-6.1,0-12.9,0-19,0c-4.1,0-6.1,1.4-6.1,4.8
			C203.3,191.3,203.3,202.9,203.3,213.8z"/>
		<path fill="none" stroke="#1469EB" stroke-miterlimit="10" d="M289,213.8c0-10.9,0-22.4,0-33.3c0-2.7-1.4-4.1-4.8-4.1
			c-6.8,0-13.6,0-20.4,0c-3.4,0-4.8,0.7-4.8,4.1c0,22.4,0,45.6,0,68c0,2.7,1.4,4.1,4.8,4.1c6.1,0,12.9,0,19,0c4.1,0,6.1-0.7,6.1-4.8
			C289,235.5,289,224.6,289,213.8z"/>
		<path fill="none" stroke="#1469EB" stroke-miterlimit="10" d="M344.8,213.8L344.8,213.8c0-10.9,0-21.8,0-33.3
			c0-4.1-1.4-5.4-5.4-5.4c-6.1,0-12.9,0-19,0c-4.1,0-5.4,1.4-5.4,4.8c0,22.4,0,44.2,0,66.6c0,3.4,1.4,4.8,5.4,4.8c6.1,0,12.9,0,19,0
			c4.1,0,6.1-1.4,6.1-5.4C344.1,235.5,344.8,224.6,344.8,213.8z"/>
		<path fill="none" stroke="#1469EB" stroke-miterlimit="10" d="M369.9,213.8c0,10.9,0,21.8,0,33.3c0,3.4,1.4,4.8,4.8,4.8
			c6.8,0,13.6,0,20.4,0c3.4,0,4.8-1.4,4.8-4.1c0-22.4,0-44.9,0-67.3c0-3.4-1.4-4.1-4.8-4.1c-6.8,0-12.9,0-19.7,0
			c-4.1,0-5.4,1.4-5.4,5.4C369.9,192,369.9,202.9,369.9,213.8z"/>
		<path fill="none" stroke="#1469EB" stroke-miterlimit="10" d="M425.7,213.1c0,10.9,0,22.4,0,33.3c0,3.4,0.7,4.8,4.8,4.8
			c6.8,0,13.6,0,20.4,0c3.4,0,4.8-1.4,4.8-4.1c0-22.4,0-44.9,0-67.3c0-3.4-1.4-4.8-4.8-4.1c-6.8,0-13.6,0-20.4,0
			c-3.4,0-4.8,1.4-4.8,4.8C425.7,191.3,425.7,202.2,425.7,213.1z"/>
		<path fill="none" stroke="#1469EB" stroke-miterlimit="10" d="M178.2,242.3c0-10.9,0-22.4,0-33.3c0-3.4-1.4-4.8-4.8-4.8
			c-6.8,0-13.6,0-20.4,0c-3.4,0-4.8,1.4-4.8,4.1c0,22.4,0,44.9,0,67.3c0,3.4,1.4,4.8,4.8,4.8c6.8,0,12.9,0,19.7,0
			c4.1,0,5.4-1.4,5.4-5.4C177.5,264.1,178.2,253.2,178.2,242.3z"/>
	</g>
	<path fill="#1469EB" d="M408.7,559.2H206c-10.9,0-20.4-8.8-20.4-20.4V415.7c0-11.6,9.5-20.4,20.4-20.4h202.6
		c10.9,0,20.4,8.8,20.4,20.4v123.1C429.1,549.7,419.6,559.2,408.7,559.2z"/>
	<g>
		<rect x="378.1" y="530.6" fill="#FFFFFF" width="25.2" height="16.3"/>
		<polygon fill="#FFFFFF" points="391,476.2 438.6,522.5 438.6,547 391,502.8 343.4,547 343.4,522.5 		"/>
	</g>
	<circle fill="none" stroke="#FFFFFF" stroke-width="3" stroke-miterlimit="10" cx="389.6" cy="527.9" r="81.6"/>
</g>
</svg>
