<?xml version="1.0" encoding="utf-8"?>
<!-- Generator: Adobe Illustrator 18.1.1, SVG Export Plug-In . SVG Version: 6.00 Build 0)  -->
<svg version="1.1" id="Слой_1" xmlns="http://www.w3.org/2000/svg" xmlns:xlink="http://www.w3.org/1999/xlink" x="0px" y="0px"
	 viewBox="0 0 90 90" enable-background="new 0 0 90 90" xml:space="preserve">
<g>
	<g>
		<path fill="none" stroke="#8D8D8D" stroke-width="2" stroke-miterlimit="10" d="M17,35.6c0.4,0,0.8,0,1.2,0c0.7,0,1-0.3,1.1-1
			c0-0.8,0-1.6,0-2.3c0-0.7-0.3-0.9-1-1c-0.4,0-0.7,0-1.1,0c0,0,0,0-0.1-0.1c0-0.2,0-0.4,0-0.6c0-4,0-8,0-11.9
			c0-0.8,0.2-1.5,0.8-2.1c1.9-2.1,3.8-4.3,5.7-6.5c0.5-0.6,1.1-0.8,1.9-0.8c15,0,30.1,0,45.1,0c1,0,1.2,0.2,1.2,1
			c0,5.9,0,11.8,0,17.7c0,0.2,0,0.4-0.1,0.6c-0.5,0-1,0-1.4,0c-0.7,0-1.1,0.3-1.1,1c0,3,0,6,0,8.9c0,0.6,0.4,1,1.1,1
			c0.4,0,0.9,0,1.4,0c0,0.3,0,0.5,0,0.7c0,12.6,0,25.2,0,37.8c0,0.9-0.2,1.1-1.2,1.1c-17.4,0-34.9,0-52.3,0c-1,0-1.2-0.2-1.2-1.1
			c0-13.9,0-27.7,0-41.6C16.9,36.1,16.9,35.9,17,35.6z"/>
		<path fill="none" stroke="#8D8D8D" stroke-miterlimit="10" d="M29.9,18.2c0,1.7,0,3.3,0,5c0,0.4,0.2,0.6,0.7,0.6c1,0,2,0,3,0
			c0.5,0,0.7-0.1,0.7-0.6c0-3.3,0-6.7,0-10c0-0.4-0.2-0.6-0.7-0.6c-0.9,0-1.9,0-2.8,0c-0.6,0-0.9,0.2-0.9,0.7
			C29.9,14.9,29.9,16.6,29.9,18.2z"/>
		<path fill="none" stroke="#8D8D8D" stroke-miterlimit="10" d="M42.5,18.2c0-1.6,0-3.3,0-4.9c0-0.4-0.2-0.6-0.7-0.6c-1,0-2,0-3,0
			c-0.5,0-0.7,0.1-0.7,0.6c0,3.3,0,6.7,0,10c0,0.4,0.2,0.6,0.7,0.6c0.9,0,1.9,0,2.8,0c0.6,0,0.9-0.1,0.9-0.7
			C42.5,21.4,42.5,19.8,42.5,18.2z"/>
		<path fill="none" stroke="#8D8D8D" stroke-miterlimit="10" d="M50.7,18.2C50.7,18.2,50.7,18.2,50.7,18.2c0-1.6,0-3.2,0-4.9
			c0-0.6-0.2-0.8-0.8-0.8c-0.9,0-1.9,0-2.8,0c-0.6,0-0.8,0.2-0.8,0.7c0,3.3,0,6.5,0,9.8c0,0.5,0.2,0.7,0.8,0.7c0.9,0,1.9,0,2.8,0
			c0.6,0,0.9-0.2,0.9-0.8C50.6,21.4,50.7,19.8,50.7,18.2z"/>
		<path fill="none" stroke="#8D8D8D" stroke-miterlimit="10" d="M54.4,18.2c0,1.6,0,3.2,0,4.9c0,0.5,0.2,0.7,0.7,0.7c1,0,2,0,3,0
			c0.5,0,0.7-0.2,0.7-0.6c0-3.3,0-6.6,0-9.9c0-0.5-0.2-0.6-0.7-0.6c-1,0-1.9,0-2.9,0c-0.6,0-0.8,0.2-0.8,0.8
			C54.4,15,54.4,16.6,54.4,18.2z"/>
		<path fill="none" stroke="#8D8D8D" stroke-miterlimit="10" d="M62.6,18.1c0,1.6,0,3.3,0,4.9c0,0.5,0.1,0.7,0.7,0.7c1,0,2,0,3,0
			c0.5,0,0.7-0.2,0.7-0.6c0-3.3,0-6.6,0-9.9c0-0.5-0.2-0.7-0.7-0.6c-1,0-2,0-3,0c-0.5,0-0.7,0.2-0.7,0.7
			C62.6,14.9,62.6,16.5,62.6,18.1z"/>
		<path fill="none" stroke="#8D8D8D" stroke-miterlimit="10" d="M26.2,22.4c0-1.6,0-3.3,0-4.9c0-0.5-0.2-0.7-0.7-0.7c-1,0-2,0-3,0
			c-0.5,0-0.7,0.2-0.7,0.6c0,3.3,0,6.6,0,9.9c0,0.5,0.2,0.7,0.7,0.7c1,0,1.9,0,2.9,0c0.6,0,0.8-0.2,0.8-0.8
			C26.1,25.6,26.2,24,26.2,22.4z"/>
	</g>
	<path fill="#1469EB" d="M60.1,69H30.3c-1.6,0-3-1.3-3-3V47.9c0-1.7,1.4-3,3-3h29.8c1.6,0,3,1.3,3,3V66C63.1,67.6,61.7,69,60.1,69z"
		/>
	<g>
		<rect x="55.6" y="64.8" fill="#FFFFFF" width="3.7" height="2.4"/>
		<polygon fill="#FFFFFF" points="57.5,56.8 64.5,63.6 64.5,67.2 57.5,60.7 50.5,67.2 50.5,63.6 		"/>
	</g>
	<circle fill="none" stroke="#FFFFFF" stroke-width="3" stroke-miterlimit="10" cx="57.3" cy="64.4" r="12"/>
</g>
</svg>
