<?xml version="1.0" encoding="utf-8"?>
<!-- Generator: Adobe Illustrator 19.2.1, SVG Export Plug-In . SVG Version: 6.00 Build 0)  -->
<svg version="1.1" id="Слой_1" xmlns="http://www.w3.org/2000/svg" xmlns:xlink="http://www.w3.org/1999/xlink" x="0px" y="0px"
	 viewBox="0 0 40 40" style="enable-background:new 0 0 40 40;" xml:space="preserve">
<style type="text/css">
	.st0{fill:#008DF7;}
	.st1{fill:#FFFFFF;}
</style>
<g>
	<circle id="XMLID_214_" class="st0" cx="20" cy="20" r="19.5"/>
	<g id="XMLID_207_">
		<polygon id="XMLID_213_" class="st1" points="17.3,24.4 16.2,25.5 17.3,26.7 3.9,26.7 2.5,25.5 3.9,24.4 		"/>
		<polygon id="XMLID_212_" class="st1" points="21.2,12.8 20.1,14 21.2,15.1 7.7,15.1 6.4,14 7.8,12.8 		"/>
		<polygon id="XMLID_211_" class="st1" points="21,27.4 20.3,25.9 18.8,26.5 23.4,13.9 24.9,13 25.6,14.8 		"/>
		<polygon id="XMLID_210_" class="st1" points="32,27.3 31.3,25.9 29.8,26.5 34.4,13.9 36,13 36.6,14.7 		"/>
		<polygon id="XMLID_209_" class="st1" points="27.5,17.6 28.4,18.7 29.8,18.5 26.9,26.5 25.5,26.9 24.6,25.6 		"/>
		<polygon id="XMLID_208_" class="st1" points="5.9,20.9 6.5,19.7 5.9,18.5 14.2,18.5 15.1,19.7 14.2,20.9 		"/>
	</g>
</g>
</svg>
