<?xml version="1.0" encoding="utf-8"?>
<!-- Generator: Adobe Illustrator 18.1.1, SVG Export Plug-In . SVG Version: 6.00 Build 0)  -->
<svg version="1.1" id="Слой_1" xmlns="http://www.w3.org/2000/svg" xmlns:xlink="http://www.w3.org/1999/xlink" x="0px" y="0px"
	 viewBox="0 0 90 90" enable-background="new 0 0 90 90" xml:space="preserve">
<g>
	<path fill="#8D8D8D" d="M53.5,31.8c-0.3,0-0.7,0-1,0c-1.5,0.7-3.2,1.2-4.8,1.8c-5.6,2-11.2,4-16.8,6c0,8.5,0,17,0,25.5
		c0.5,2,1.2,4,2.4,5.8c2.4,3.6,5.7,6.2,9.3,8.5c3.1,2,6.5,3.6,9.9,5.1c0.3,0,0.7,0,1,0c0,0,0-0.1,0-0.1c5.3-2.1,10.3-4.8,14.7-8.5
		c3-2.6,5.4-5.5,6.6-9.3c0.2-0.5,0.3-0.8,0.5-1.6c0-8.4,0-16.8,0-25.1C68,37.1,53.5,31.8,53.5,31.8z M53.3,82.7c0,0.2,0-1,0-0.8
		C53.3,81.7,53.3,82.9,53.3,82.7z M73.1,63c0,2.6-2.3,6.4-4,8.4c-3.8,4.7-8.9,7.4-14.3,9.8c-0.5,0.2-1,0.4-1.5,0.6
		c0,0.2,0,0.5,0,0.7c0-0.2,0-0.5,0-0.7c-2.4-0.6-4.6-1.8-6.8-3c-3.1-1.7-6.1-3.7-8.6-6.4c-2.5-2.7-4.9-7.2-4.9-10.9c0.1-6,0-13,0-19
		c0-0.8,0.2-1.7,1-1.9c6-2.1,12.9-4.2,18.8-6.4c0.1,0,0.3,0,0.4-0.1c4.1,1.5,8.1,2.9,12.2,4.4c2,0.7,4,1.4,6,2.1
		c0.5,0.2,1.7,0.9,1.7,1.5C73.1,48.8,73.2,56.4,73.1,63z"/>
	<path fill="#8D8D8D" d="M73.2,39.6c0-9.2,0-19.1,0-28.3c0-2.3-1.3-3.6-3.5-3.6c-11.6,0-24.2,0-35.8,0c-0.3,0-0.5,0-0.9,0
		c0,0.4,0,0.7,0,1c0,4.1,0,8.6,0,12.7c0,3.2-1.2,4.4-4.3,4.4c-4,0-8.6,0-12.6,0c-0.3,0-0.6,0-1,0c0,0.3,0,0.6,0,0.9
		c0,19,0,24.2,0,43.2c0,1.3,0.8,2.8,1.9,3.5c0.5,0.3,1.2,0.5,1.8,0.5c6.8,0,10.6,0,17.6,0.2c0.7,0.8,1.6,1.1,2.3,2
		c-0.1,0-10.3,0-19.9,0c-3.2,0-5.7-2.5-5.7-5.7c0-19.4,0-24,0-43.4c0-1.4,0.5-2.6,1.5-3.6c5.4-5.4,10.8-10.9,16.2-16.3
		c1-1,2.3-1.3,3.6-1.3c8.6,0,17.2,0,25.9,0c3.3,0,6.5,0,9.8,0c3.4,0,5.5,2.1,5.5,5.6c0,12.1-0.1,17.2-0.1,29.3
		C74.4,40,74.5,40,73.2,39.6z"/>
	<path fill="#1469EB" d="M69.9,45.2c0-0.8-0.2-1-0.8-1.2c-3.2-1.1-6.5-2.4-9.7-3.5c-2-0.7-3.9-1.6-6-2.1c-0.1-0.1-0.3-0.2-0.4-0.1
		c-1.5,0.5-3,1-4.5,1.6c-3.7,1.4-7.4,2.8-11.1,4.1c-0.7,0.2-0.9,0.6-0.9,1.3c0,5.5,0,11.1,0,16.6c0,0.8,0.1,1.6,0.3,2.3
		c0.7,3.2,2.9,5.5,5.2,7.5c2.7,2.4,5.9,4.1,9.3,5.6c0.6,0.3,1.2,0.8,2.1,0.6c5.1-1.9,9.7-4.5,13.4-8.6C69,66.9,70,64,70,60.6
		C69.9,55.5,69.9,50.3,69.9,45.2z"/>
	<rect x="50.3" y="61.3" fill="#FFFFFF" width="5.6" height="4.4"/>
	<polygon fill="#FFFFFF" points="53.1,47 63.9,59.1 63.9,65.7 53.1,54 42.4,65.7 42.4,59.1 	"/>
	<rect x="39.4" y="13.5" fill="#8D8D8D" width="28" height="1.3"/>
	<rect x="39.4" y="19.4" fill="#8D8D8D" width="28" height="1.3"/>
	<rect x="39.4" y="25.4" fill="#8D8D8D" width="28" height="1.3"/>
	<rect x="19" y="35.1" fill="#8D8D8D" width="8.4" height="1.3"/>
	<rect x="19" y="41.1" fill="#8D8D8D" width="8.4" height="1.3"/>
	<rect x="19" y="47.1" fill="#8D8D8D" width="8.4" height="1.3"/>
	<rect x="19" y="47.1" fill="#8D8D8D" width="8.4" height="1.3"/>
	<rect x="19" y="53.1" fill="#8D8D8D" width="8.4" height="1.3"/>
	<rect x="19" y="59.1" fill="#8D8D8D" width="8.4" height="1.3"/>
</g>
</svg>
