<?xml version="1.0" encoding="utf-8"?>
<!-- Generator: Adobe Illustrator 18.1.1, SVG Export Plug-In . SVG Version: 6.00 Build 0)  -->
<svg version="1.1" id="Слой_1" xmlns="http://www.w3.org/2000/svg" xmlns:xlink="http://www.w3.org/1999/xlink" x="0px" y="0px"
	 viewBox="0 0 612 792" enable-background="new 0 0 612 792" xml:space="preserve">
<g>
	<path fill="#1469EB" d="M363.8,306.2c-2,0-4.8,0-6.8,0c-10.2,4.8-21.8,8.2-32.6,12.2c-38.1,13.6-76.2,27.2-114.2,40.8
		c0,57.8,0,115.6,0,173.4c3.4,13.6,8.2,27.2,16.3,39.4c16.3,24.5,38.8,42.2,63.2,57.8c21.1,13.6,44.2,24.5,67.3,34.7
		c2,0,4.8,0,6.8,0v-0.7c36-14.3,70-32.6,100-57.8c20.4-17.7,36.7-37.4,44.9-63.2c1.4-3.4,2-5.4,3.4-10.9c0-57.1,0-114.2,0-170.7
		C462.4,342.3,363.8,306.2,363.8,306.2z M362.4,652.4c0,1.4,0-6.8,0-5.4C362.4,645.6,362.4,653.7,362.4,652.4z M497.1,518.4
		c0,17.7-15.6,43.5-27.2,57.1c-25.8,32-60.5,50.3-97.2,66.6c-3.4,1.4-6.8,2.7-10.2,4.1c0,1.4,0,3.4,0,4.8c0-1.4,0-3.4,0-4.8
		c-16.3-4.1-31.3-12.2-46.2-20.4c-21.1-11.6-41.5-25.2-58.5-43.5c-17-18.4-33.3-49-33.3-74.1c0.7-40.8,0-88.4,0-129.2
		c0-5.4,1.4-11.6,6.8-12.9c40.8-14.3,87.7-28.6,127.8-43.5c0.7,0,2,0,2.7-0.7c27.9,10.2,55.1,19.7,83,29.9
		c13.6,4.8,27.2,9.5,40.8,14.3c3.4,1.4,11.6,6.1,11.6,10.2C497.1,421.8,497.8,473.5,497.1,518.4z"/>
	<path fill="#1469EB" d="M497.8,359.3c0-62.6,0-129.9,0-192.4c0-15.6-8.8-24.5-23.8-24.5c-78.9,0-164.6,0-243.4,0c-2,0-3.4,0-6.1,0
		c0,2.7,0,4.8,0,6.8c0,27.9,0,58.5,0,86.4c0,21.8-8.2,29.9-29.2,29.9c-27.2,0-58.5,0-85.7,0c-2,0-4.1,0-6.8,0c0,2,0,4.1,0,6.1
		c0,129.2,0,164.6,0,293.8c0,8.8,5.4,19,12.9,23.8c3.4,2,8.2,3.4,12.2,3.4c46.2,0,72.1,0,119.7,1.4c4.8,5.4,10.9,7.5,15.6,13.6
		c-0.7,0-70,0-135.3,0c-21.8,0-38.8-17-38.8-38.8c0-131.9,0-163.2,0-295.1c0-9.5,3.4-17.7,10.2-24.5
		c36.7-36.7,73.4-74.1,110.2-110.8c6.8-6.8,15.6-8.8,24.5-8.8c58.5,0,117,0,176.1,0c22.4,0,44.2,0,66.6,0
		c23.1,0,37.4,14.3,37.4,38.1c0,82.3-0.7,117-0.7,199.2C505.9,362,506.6,362,497.8,359.3z"/>
	<path fill="#1469EB" d="M475.3,397.4c0-5.4-1.4-6.8-5.4-8.2c-21.8-7.5-44.2-16.3-66-23.8c-13.6-4.8-26.5-10.9-40.8-14.3
		c-0.7-0.7-2-1.4-2.7-0.7c-10.2,3.4-20.4,6.8-30.6,10.9c-25.2,9.5-50.3,19-75.5,27.9c-4.8,1.4-6.1,4.1-6.1,8.8
		c0,37.4,0,75.5,0,112.9c0,5.4,0.7,10.9,2,15.6c4.8,21.8,19.7,37.4,35.4,51c18.4,16.3,40.1,27.9,63.2,38.1c4.1,2,8.2,5.4,14.3,4.1
		c34.7-12.9,66-30.6,91.1-58.5c15-16.3,21.8-36,21.8-59.2C475.3,467.4,475.3,432,475.3,397.4z"/>
	<rect x="342" y="506.8" fill="#FFFFFF" width="38.1" height="29.9"/>
	<polygon fill="#FFFFFF" points="361.1,409.6 434.5,491.9 434.5,536.8 361.1,457.2 288.3,536.8 288.3,491.9 	"/>
	<rect x="267.9" y="181.8" fill="#1469EB" width="190.4" height="8.8"/>
	<rect x="267.9" y="221.9" fill="#1469EB" width="190.4" height="8.8"/>
	<rect x="267.9" y="262.7" fill="#1469EB" width="190.4" height="8.8"/>
	<rect x="129.2" y="328.7" fill="#1469EB" width="57.1" height="8.8"/>
	<rect x="129.2" y="369.5" fill="#1469EB" width="57.1" height="8.8"/>
	<rect x="129.2" y="410.3" fill="#8D8D8D" width="57.1" height="8.8"/>
	<rect x="129.2" y="410.3" fill="#1469EB" width="57.1" height="8.8"/>
	<rect x="129.2" y="451.1" fill="#1469EB" width="57.1" height="8.8"/>
	<rect x="129.2" y="491.9" fill="#1469EB" width="57.1" height="8.8"/>
</g>
</svg>
