<?xml version="1.0" encoding="utf-8"?>
<!-- Generator: Adobe Illustrator 18.1.1, SVG Export Plug-In . SVG Version: 6.00 Build 0)  -->
<svg version="1.1" id="Слой_1" xmlns="http://www.w3.org/2000/svg" xmlns:xlink="http://www.w3.org/1999/xlink" x="0px" y="0px"
	 viewBox="0 0 27 27" enable-background="new 0 0 27 27" xml:space="preserve">
<polygon fill="#666666" points="22.3,9.7 19.3,9.7 19.3,6.7 18.3,6.7 18.3,9.7 15.3,9.7 15.3,10.7 18.3,10.7 18.3,13.7 19.3,13.7 
	19.3,10.7 22.3,10.7 22.3,9.7 "/>
<path fill="#666666" d="M12.5,14.4c-0.4-0.3-1.1-0.9-1.1-1.3c0-0.4,0.1-0.7,0.8-1.2c0.7-0.5,1.2-1.3,1.2-2.2c0-1-0.5-2.1-1.3-2.4
	h1.3l0.9-0.7c0,0-3.1,0-4.1,0c-1.9,0-3.6,1.4-3.6,3.1c0,1.7,1.3,3,3.2,3c0.1,0,0.3,0,0.4,0c-0.1,0.2-0.2,0.5-0.2,0.8
	c0,0.5,0.2,0.8,0.6,1.2c-0.2,0-0.5,0-0.7,0c-2.3,0-4.1,1.5-4.1,3c0,1.5,1.9,2.4,4.2,2.4c2.6,0,4.1-1.5,4.1-3
	C13.9,15.9,13.6,15.2,12.5,14.4L12.5,14.4z M10.3,12.4L10.3,12.4c-1.1,0-2.1-1.2-2.3-2.6C7.8,8.3,8.5,7.3,9.6,7.3
	c1.1,0,2.1,1.2,2.3,2.6C12,11.3,11.3,12.4,10.3,12.4L10.3,12.4z M9.8,19.5L9.8,19.5c-1.6,0-2.7-1-2.7-2.2c0-1.2,1.4-2.2,3-2.2
	c0.4,0,0.7,0.1,1,0.2c0.9,0.6,1.5,0.9,1.7,1.6c0,0.1,0.1,0.3,0.1,0.4C12.9,18.5,12.1,19.5,9.8,19.5L9.8,19.5z"/>
</svg>
