<?xml version="1.0" encoding="utf-8"?>
<!-- Generator: Adobe Illustrator 18.1.1, SVG Export Plug-In . SVG Version: 6.00 Build 0)  -->
<svg version="1.1" id="Слой_1" xmlns="http://www.w3.org/2000/svg" xmlns:xlink="http://www.w3.org/1999/xlink" x="0px" y="0px"
	 viewBox="0 0 612 792" enable-background="new 0 0 612 792" xml:space="preserve">
<g>
	<circle fill="none" stroke="#1469EB" stroke-width="2" stroke-miterlimit="10" cx="204" cy="317.1" r="170"/>
	<g>
		<g>
			<g>
				<path fill="#1469EB" stroke="#FFFFFF" stroke-miterlimit="10" d="M265.9,347.7c0,12.2-4.8,23.1-13.6,31.3
					c-9.5,8.2-22.4,12.9-40.1,15v28.6h-17v-27.2c-21.8-0.7-39.4-3.4-53-10.2V358c7.5,3.4,16.3,6.8,25.8,8.8
					c10.2,2.7,19,4.1,26.5,4.1v-49.6l-10.9-4.1c-14.3-5.4-24.5-12.2-31.3-19.7s-9.5-17-9.5-27.9c0-12.2,4.8-21.8,14.3-29.2
					c9.5-7.5,21.8-12.2,38.1-14.3v-21.8h17V226c17.7,0.7,34,4.1,50.3,10.9L253,260c-13.6-5.4-27.2-8.8-40.8-9.5v47.6l10.2,4.1
					c16.3,6.1,27.9,12.9,34,19.7C262.5,328.7,265.9,337.5,265.9,347.7z M173.4,269.5c0,4.8,1.4,8.8,4.8,12.2c3.4,3.4,8.8,6.8,17,9.5
					v-40.1c-6.8,1.4-12.2,3.4-15.6,6.1C175.4,260.7,173.4,264.8,173.4,269.5z M235.3,349.8c0-4.8-2-8.8-5.4-12.2
					c-3.4-3.4-9.5-6.1-17.7-9.5v40.8C227.8,366.8,235.3,360,235.3,349.8z"/>
			</g>
		</g>
	</g>
	<circle fill="#FFFFFF" stroke="#1469EB" stroke-width="2" stroke-miterlimit="10" cx="412.1" cy="469.4" r="170"/>
	<g>
		<g>
			<g>
				<path fill="#1469EB" stroke="#FFFFFF" stroke-miterlimit="10" d="M475.3,528.6c0,6.1,0,12.9,0,19c0,2-2.7,4.8-4.1,4.8
					c-26.5,7.5-53,8.2-79.6-2c-19-8.2-32-22.4-38.1-42.2c-2.7-8.8-6.8-12.9-16.3-10.9c-2.7,0.7-4.8,0-9.5,0
					c6.1-8.2,2.7-21.1,17.7-21.8c0-6.8,0-14.3,0-21.8c-5.4,0-10.2-0.7-16.3-0.7c2.7-6.1,4.1-12.2,6.8-17c1.4-2,5.4-2.7,8.2-2.7
					c4.8,0,6.8-2,8.8-6.1c12.9-36,40.1-51.7,76.8-52.4c12.9,0,26.5,2,39.4,3.4c4.8,0.7,6.8,2.7,6.8,8.2c-0.7,6.1,0,12.2,0,19.7
					c-23.8-7.5-47.6-12.9-70,1.4c-8.8,5.4-14.3,14.3-18.4,25.8c13.6,0,25.8,0,38.8,0c12.2,0,24.5,0,38.8,0
					c-2.7,6.8-4.8,12.9-8.2,18.4c-0.7,1.4-4.1,2-6.8,2c-19,0-38.8,0-57.8,0c-3.4,0-6.1,0-10.2,0c0,7.5,0,15,0,22.4
					c21.1,0,42.2,0,64.6,0c-3.4,7.5-5.4,14.3-8.2,21.1c-17,0-33.3,0-51.7,0c4.1,12.2,9.5,23.1,20.4,28.6c10.2,4.8,22.4,8.2,33.3,8.8
					C451.5,534.7,463.1,530.6,475.3,528.6z"/>
			</g>
		</g>
	</g>
	
		<rect x="424.4" y="202" transform="matrix(-0.689 0.7248 -0.7248 -0.689 894.7975 42.3756)" fill="#1469EB" width="27.9" height="22.4"/>
	<polygon fill="#1469EB" points="500.5,272.2 491,190.6 466.5,167.5 474,247.1 393.7,243.7 418.2,267.5 	"/>
	
		<rect x="165.9" y="563.4" transform="matrix(0.689 -0.7248 0.7248 0.689 -360.4889 309.0918)" fill="#1469EB" width="27.9" height="22.4"/>
	<polygon fill="#1469EB" points="118.3,515.7 127.2,597.3 151.6,620.4 144.8,540.8 224.4,544.2 199.9,520.4 	"/>
</g>
</svg>
