<?xml version="1.0" encoding="utf-8"?>
<!-- Generator: Adobe Illustrator 18.1.1, SVG Export Plug-In . SVG Version: 6.00 Build 0)  -->
<svg version="1.1" id="Слой_1" xmlns="http://www.w3.org/2000/svg" xmlns:xlink="http://www.w3.org/1999/xlink" x="0px" y="0px"
	 viewBox="0 0 90 90" enable-background="new 0 0 90 90" xml:space="preserve">
<g>
	<circle fill="none" stroke="#8D8D8D" stroke-width="2" stroke-miterlimit="10" cx="30" cy="33.4" r="25"/>
	<g>
		<g>
			<g>
				<path fill="#8D8D8D" stroke="#FFFFFF" stroke-miterlimit="10" d="M39.1,37.9c0,1.8-0.7,3.4-2,4.6c-1.4,1.2-3.3,1.9-5.9,2.2v4.2
					h-2.5v-4c-3.2-0.1-5.8-0.5-7.8-1.5v-4c1.1,0.5,2.4,1,3.8,1.3c1.5,0.4,2.8,0.6,3.9,0.6V34l-1.6-0.6c-2.1-0.8-3.6-1.8-4.6-2.9
					c-1-1.1-1.4-2.5-1.4-4.1c0-1.8,0.7-3.2,2.1-4.3c1.4-1.1,3.2-1.8,5.6-2.1v-3.2h2.5V20c2.6,0.1,5,0.6,7.4,1.6L37.2,25
					c-2-0.8-4-1.3-6-1.4v7l1.5,0.6c2.4,0.9,4.1,1.9,5,2.9C38.6,35.1,39.1,36.4,39.1,37.9z M25.5,26.4c0,0.7,0.2,1.3,0.7,1.8
					c0.5,0.5,1.3,1,2.5,1.4v-5.9c-1,0.2-1.8,0.5-2.3,0.9C25.8,25.1,25.5,25.7,25.5,26.4z M34.6,38.2c0-0.7-0.3-1.3-0.8-1.8
					c-0.5-0.5-1.4-0.9-2.6-1.4V41C33.5,40.7,34.6,39.7,34.6,38.2z"/>
			</g>
		</g>
	</g>
	<circle fill="#FFFFFF" stroke="#8D8D8D" stroke-width="2" stroke-miterlimit="10" cx="60.6" cy="55.8" r="25"/>
	<g>
		<g>
			<g>
				<path fill="#8D8D8D" stroke="#FFFFFF" stroke-miterlimit="10" d="M69.9,64.5c0,0.9,0,1.9,0,2.8c0,0.3-0.4,0.7-0.6,0.7
					c-3.9,1.1-7.8,1.2-11.7-0.3c-2.8-1.2-4.7-3.3-5.6-6.2c-0.4-1.3-1-1.9-2.4-1.6c-0.4,0.1-0.7,0-1.4,0c0.9-1.2,0.4-3.1,2.6-3.2
					c0-1,0-2.1,0-3.2c-0.8,0-1.5-0.1-2.4-0.1c0.4-0.9,0.6-1.8,1-2.5c0.2-0.3,0.8-0.4,1.2-0.4c0.7,0,1-0.3,1.3-0.9
					c1.9-5.3,5.9-7.6,11.3-7.7c1.9,0,3.9,0.3,5.8,0.5c0.7,0.1,1,0.4,1,1.2c-0.1,0.9,0,1.8,0,2.9c-3.5-1.1-7-1.9-10.3,0.2
					c-1.3,0.8-2.1,2.1-2.7,3.8c2,0,3.8,0,5.7,0c1.8,0,3.6,0,5.7,0c-0.4,1-0.7,1.9-1.2,2.7c-0.1,0.2-0.6,0.3-1,0.3
					c-2.8,0-5.7,0-8.5,0c-0.5,0-0.9,0-1.5,0c0,1.1,0,2.2,0,3.3c3.1,0,6.2,0,9.5,0c-0.5,1.1-0.8,2.1-1.2,3.1c-2.5,0-4.9,0-7.6,0
					c0.6,1.8,1.4,3.4,3,4.2c1.5,0.7,3.3,1.2,4.9,1.3C66.4,65.4,68.1,64.8,69.9,64.5z"/>
			</g>
		</g>
	</g>
	
		<rect x="62.4" y="16.5" transform="matrix(-0.689 0.7248 -0.7248 -0.689 122.0171 -16.0821)" fill="#1469EB" width="4.1" height="3.3"/>
	<polygon fill="#1469EB" points="73.6,26.8 72.2,14.8 68.6,11.4 69.7,23.1 57.9,22.6 61.5,26.1 	"/>
	
		<rect x="24.4" y="69.6" transform="matrix(0.689 -0.7248 0.7248 0.689 -43.4049 41.3421)" fill="#1469EB" width="4.1" height="3.3"/>
	<polygon fill="#1469EB" points="17.4,62.6 18.7,74.6 22.3,78 21.3,66.3 33,66.8 29.4,63.3 	"/>
</g>
</svg>
