<?xml version="1.0" encoding="utf-8"?>
<!-- Generator: Adobe Illustrator 18.1.1, SVG Export Plug-In . SVG Version: 6.00 Build 0)  -->
<svg version="1.1" id="Слой_1" xmlns="http://www.w3.org/2000/svg" xmlns:xlink="http://www.w3.org/1999/xlink" x="0px" y="0px"
	 viewBox="0 0 612 792" enable-background="new 0 0 612 792" xml:space="preserve">
<g>
	<g>
		<rect x="406" y="385.1" fill="#1469EB" width="39.4" height="26.5"/>
		<polygon fill="#1469EB" points="425.7,299.4 501.2,372.2 501.2,411.6 425.7,341.6 350.2,411.6 350.2,372.2 		"/>
	</g>
	<path fill="none" stroke="#1469EB" stroke-width="2" stroke-miterlimit="10" d="M505.9,453.8c3.4-58.5,2.7-117.6,2.7-176.1
		c-22.4-19.7-52.4-32-85-32c-71.4,0-129.2,57.8-129.2,129.2c0,48.3,26.5,89.8,65.3,112.2h128.5c5.4-3.4,10.9-7.5,16.3-11.6
		C504.6,468.8,505.2,461.3,505.9,453.8z"/>
	<path fill="#FFFFFF" stroke="#1469EB" stroke-width="2" stroke-miterlimit="10" d="M525,162.8c0,157.8,0,313.5,0,471.2
		c-3.4,0.7-7.5,2-10.9,2c-66.6,0-132.6,0-199.2,0c-12.9,0-17-4.1-17.7-17c-2-29.2-6.8-57.1-9.5-86.4c-1.4-12.9-12.2-27.9,8.2-37.4
		c4.1-2,2-14.3,3.4-23.8c-55.1,0-108.1,0-166.6,0c0,8.2-0.7,15,1.4,19.7c1.4,3.4,12.2,2,14.3,9.5c2,8.8-3.4,15.6-4.8,24.5
		c-6.1,36-12.9,70.7-19.7,108.8c-9.5,0-21.8,0-36,0c0-157.1,0-312.8,0-471.9c0-5.4,12.9-17,19-17c131.2,0,263.2,0,396.4,0
		C510,146.4,525,157.3,525,162.8z M305.3,414.4L305.3,414.4c46.9,0,93.2,0,140.1,0c27.2,0,42.2-15,42.2-41.5c0-49.6,0-99.3,0-148.9
		c0-25.8-15.6-42.8-42.2-42.8c-93.2-0.7-187-0.7-280.2,0c-26.5,0-42.2,17.7-42.2,42.8c0,49.6,0,99.3,0,148.9
		c0,27.2,15,41.5,42.2,41.5C212.2,415,259.1,414.4,305.3,414.4z"/>
	<rect x="352.2" y="471.5" fill="#1469EB" width="28.6" height="28.6"/>
	<rect x="439.3" y="471.5" fill="#1469EB" width="28.6" height="28.6"/>
	<rect x="439.3" y="510.2" fill="#1469EB" width="28.6" height="28.6"/>
	<rect x="395.1" y="510.2" fill="#1469EB" width="28.6" height="28.6"/>
	<rect x="352.2" y="510.2" fill="#1469EB" width="28.6" height="28.6"/>
	<rect x="352.2" y="550.4" fill="#1469EB" width="28.6" height="28.6"/>
	<rect x="395.1" y="550.4" fill="#1469EB" width="28.6" height="28.6"/>
	<rect x="439.3" y="550.4" fill="#1469EB" width="28.6" height="28.6"/>
	<rect x="395.1" y="471.5" fill="#1469EB" width="28.6" height="28.6"/>
	<polygon fill="#1469EB" points="152.3,624.5 279.5,624.5 263.2,506.8 168,506.8 	"/>
	<rect x="152.3" y="636.7" fill="#1469EB" width="127.2" height="10.2"/>
	<rect x="152.3" y="657.1" fill="#1469EB" width="127.2" height="10.2"/>
	<g>
		<path fill="#FFFFFF" d="M227.1,605.4c0,0.7,0,0.7-0.7,1.4c-0.7,0-0.7,0-1.4,0c-1.4,0-2,0-2.7,0c-0.7,0-2.7,0.7-5.4,1.4
			c-2.7,1.4-4.8,1.4-4.8,1.4c-0.7,0-1.4-0.7-1.4-1.4l0.7-18.4c-1.4,0-4.1-1.4-8.8-3.4c-3.4-1.4-6.1-2-8.8-2c-1.4,0-2,0-2.7,0.7
			c3.4-4.1,5.4-6.8,6.8-8.2c2.7-3.4,4.1-6.1,5.4-8.2c2.7,4.8,6.8,6.8,12.2,6.8c1.4,0,3.4-0.7,4.1-1.4c1.4-0.7,2-2,2-3.4
			c0-2.7-2-4.8-6.8-7.5c-7.5-4.1-11.6-6.1-12.2-6.8c-4.1-3.4-6.1-6.8-5.4-10.9c0-3.4,2-6.1,4.8-8.8c2.7-2.7,6.1-4.1,10.2-4.8
			c0-0.7,0-1.4,0-2.7c0-1.4,0-2,0-2.7s0-1.4-0.7-2c-0.7-1.4-0.7-2-0.7-2s0-0.7,0.7-0.7c0,0,0.7,0,1.4,0s1.4,0,1.4,0
			c1.4,0,2.7,0,4.8-0.7s3.4-0.7,3.4-0.7c0.7,0,1.4,0,1.4,0.7v12.2c1.4,0,3.4,1.4,6.8,2.7c3.4,1.4,5.4,2,6.8,2c0.7,0,0.7,0,1.4,0
			c-2.7,2-4.1,4.1-5.4,4.8c-2,2-3.4,4.1-4.1,6.1c-0.7-2-2-3.4-3.4-4.8c-2-1.4-4.1-2-6.1-2c-1.4,0-2.7,0-3.4,0.7c-1.4,0.7-2,1.4-2,2
			c0,1.4,2,3.4,6.8,5.4c6.8,3.4,10.9,5.4,12.9,6.8c4.8,3.4,7.5,7.5,8.2,12.2c0.7,4.8-0.7,8.8-3.4,12.2c-2.7,4.1-7.5,6.1-12.9,7.5
			c0,4.8,0,7.5,0,6.8c0,0.7,0.7,2,0.7,4.1C226.4,603.4,227.1,604.8,227.1,605.4z"/>
	</g>
</g>
</svg>
