<?xml version="1.0" encoding="utf-8"?>
<!-- Generator: Adobe Illustrator 18.1.1, SVG Export Plug-In . SVG Version: 6.00 Build 0)  -->
<svg version="1.1" id="Слой_1" xmlns="http://www.w3.org/2000/svg" xmlns:xlink="http://www.w3.org/1999/xlink" x="0px" y="0px"
	 viewBox="0 0 90 90" enable-background="new 0 0 90 90" xml:space="preserve">
<g>
	<g>
		<rect x="59.7" y="43.4" fill="#1469EB" width="5.8" height="3.9"/>
		<polygon fill="#1469EB" points="62.6,30.8 73.7,41.5 73.7,47.3 62.6,37 51.5,47.3 51.5,41.5 		"/>
	</g>
	<path fill="none" stroke="#1469EB" stroke-width="2" stroke-miterlimit="10" d="M74.4,53.5c0.5-8.6,0.4-17.3,0.4-25.9
		c-3.3-2.9-7.7-4.7-12.5-4.7c-10.5,0-19,8.5-19,19c0,7.1,3.9,13.2,9.6,16.5h18.9c0.8-0.5,1.6-1.1,2.4-1.7
		C74.2,55.7,74.3,54.6,74.4,53.5z"/>
	<path fill="#FFFFFF" stroke="#8D8D8D" stroke-width="2" stroke-miterlimit="10" d="M77.2,10.7c0,23.2,0,46.1,0,69.3
		c-0.5,0.1-1.1,0.3-1.6,0.3c-9.8,0-19.5,0-29.3,0c-1.9,0-2.5-0.6-2.6-2.5c-0.3-4.3-1-8.4-1.4-12.7c-0.2-1.9-1.8-4.1,1.2-5.5
		c0.6-0.3,0.3-2.1,0.5-3.5c-8.1,0-15.9,0-24.5,0c0,1.2-0.1,2.2,0.2,2.9c0.2,0.5,1.8,0.3,2.1,1.4c0.3,1.3-0.5,2.3-0.7,3.6
		c-0.9,5.3-1.9,10.4-2.9,16c-1.4,0-3.2,0-5.3,0c0-23.1,0-46,0-69.4c0-0.8,1.9-2.5,2.8-2.5c19.3,0,38.7,0,58.3,0
		C75,8.3,77.2,9.9,77.2,10.7z M44.9,47.7C44.9,47.7,44.9,47.7,44.9,47.7c6.9,0,13.7,0,20.6,0c4,0,6.2-2.2,6.2-6.1
		c0-7.3,0-14.6,0-21.9c0-3.8-2.3-6.3-6.2-6.3c-13.7-0.1-27.5-0.1-41.2,0c-3.9,0-6.2,2.6-6.2,6.3c0,7.3,0,14.6,0,21.9
		c0,4,2.2,6.1,6.2,6.1C31.2,47.8,38.1,47.7,44.9,47.7z"/>
	<rect x="51.8" y="56.1" fill="#8D8D8D" width="4.2" height="4.2"/>
	<rect x="64.6" y="56.1" fill="#8D8D8D" width="4.2" height="4.2"/>
	<rect x="64.6" y="61.8" fill="#8D8D8D" width="4.2" height="4.2"/>
	<rect x="58.1" y="61.8" fill="#8D8D8D" width="4.2" height="4.2"/>
	<rect x="51.8" y="61.8" fill="#8D8D8D" width="4.2" height="4.2"/>
	<rect x="51.8" y="67.7" fill="#8D8D8D" width="4.2" height="4.2"/>
	<rect x="58.1" y="67.7" fill="#8D8D8D" width="4.2" height="4.2"/>
	<rect x="64.6" y="67.7" fill="#8D8D8D" width="4.2" height="4.2"/>
	<rect x="58.1" y="56.1" fill="#8D8D8D" width="4.2" height="4.2"/>
	<polygon fill="#1469EB" points="22.4,78.6 41.1,78.6 38.7,61.3 24.7,61.3 	"/>
	<rect x="22.4" y="80.4" fill="#1469EB" width="18.7" height="1.5"/>
	<rect x="22.4" y="83.4" fill="#1469EB" width="18.7" height="1.5"/>
	<g>
		<path fill="#FFFFFF" d="M33.4,75.8c0,0.1,0,0.1-0.1,0.2c-0.1,0-0.1,0-0.2,0c-0.2,0-0.3,0-0.4,0s-0.4,0.1-0.8,0.2
			c-0.4,0.2-0.7,0.2-0.7,0.2c-0.1,0-0.2-0.1-0.2-0.2l0.1-2.7c-0.2,0-0.6-0.2-1.3-0.5c-0.5-0.2-0.9-0.3-1.3-0.3c-0.2,0-0.3,0-0.4,0.1
			c0.5-0.6,0.8-1,1-1.2c0.4-0.5,0.6-0.9,0.8-1.2c0.4,0.7,1,1,1.8,1c0.2,0,0.5-0.1,0.6-0.2c0.2-0.1,0.3-0.3,0.3-0.5
			c0-0.4-0.3-0.7-1-1.1c-1.1-0.6-1.7-0.9-1.8-1c-0.6-0.5-0.9-1-0.8-1.6c0-0.5,0.3-0.9,0.7-1.3c0.4-0.4,0.9-0.6,1.5-0.7
			c0-0.1,0-0.2,0-0.4c0-0.2,0-0.3,0-0.4c0-0.1,0-0.2-0.1-0.3C31,63.7,31,63.6,31,63.6c0,0,0-0.1,0.1-0.1c0,0,0.1,0,0.2,0
			c0.1,0,0.2,0,0.2,0c0.2,0,0.4,0,0.7-0.1c0.3-0.1,0.5-0.1,0.5-0.1c0.1,0,0.2,0,0.2,0.1l0,1.8c0.2,0,0.5,0.2,1,0.4
			c0.5,0.2,0.8,0.3,1,0.3c0.1,0,0.1,0,0.2,0c-0.4,0.3-0.6,0.6-0.8,0.7c-0.3,0.3-0.5,0.6-0.6,0.9c-0.1-0.3-0.3-0.5-0.5-0.7
			c-0.3-0.2-0.6-0.3-0.9-0.3c-0.2,0-0.4,0-0.5,0.1c-0.2,0.1-0.3,0.2-0.3,0.3c0,0.2,0.3,0.5,1,0.8c1,0.5,1.6,0.8,1.9,1
			c0.7,0.5,1.1,1.1,1.2,1.8c0.1,0.7-0.1,1.3-0.5,1.8c-0.4,0.6-1.1,0.9-1.9,1.1c0,0.7,0,1.1,0,1c0,0.1,0.1,0.3,0.1,0.6
			C33.3,75.5,33.4,75.7,33.4,75.8z"/>
	</g>
</g>
</svg>
