<?xml version="1.0" encoding="utf-8"?>
<!-- Generator: Adobe Illustrator 19.2.1, SVG Export Plug-In . SVG Version: 6.00 Build 0)  -->
<svg version="1.1" id="Слой_1" xmlns="http://www.w3.org/2000/svg" xmlns:xlink="http://www.w3.org/1999/xlink" x="0px" y="0px"
	 viewBox="0 0 40 40" style="enable-background:new 0 0 40 40;" xml:space="preserve">
<style type="text/css">
	.st0{fill:#00A5D1;}
	.st1{fill:#FFFFFF;}
</style>
<g>
	<circle class="st0" cx="20" cy="20" r="19.5"/>
	<g id="XMLID_230_">
		<path id="XMLID_231_" class="st1" d="M10.8,34.8V6.5h9.2c3.5,0,5.7,0.1,6.8,0.4c1.6,0.4,3,1.3,4.1,2.8c1.1,1.4,1.6,3.3,1.6,5.5
			c0,1.7-0.3,3.2-0.9,4.4c-0.6,1.2-1.4,2.1-2.4,2.8c-1,0.7-2,1.1-3,1.3c-1.4,0.3-3.3,0.4-5.9,0.4h-3.7v10.7H10.8z M16.5,11.3v8h3.1
			c2.3,0,3.8-0.1,4.5-0.4c0.8-0.3,1.4-0.8,1.8-1.4c0.4-0.6,0.6-1.4,0.6-2.2c0-1-0.3-1.9-0.9-2.5c-0.6-0.7-1.4-1.1-2.3-1.3
			c-0.7-0.1-2.1-0.2-4.1-0.2H16.5z"/>
	</g>
	<g id="XMLID_223_">
		<path id="XMLID_227_" d="M23.3,29.9c0-0.1,0-0.3,0-0.4c0-0.1,0-0.1,0-0.2c0.2-2.9,2.8-5,5.7-4.5c2.3,0.3,4.1,2.4,4.2,4.7
			c0.1,2.5-1.7,4.7-4.2,5.1c-2.5,0.4-4.9-1.2-5.5-3.7C23.4,30.6,23.3,30.3,23.3,29.9z M24.3,29.7c0,2.2,1.8,4,3.9,4
			c2.2,0,4-1.8,4.1-3.9c0-2.2-1.7-4-3.9-4C26.1,25.7,24.3,27.5,24.3,29.7z"/>
		<path id="XMLID_224_" d="M29.3,30c0.4,0.8,0.9,1.5,1.3,2.3c-0.5,0-0.9,0-1.3,0c0,0-0.1-0.1-0.1-0.1c-0.4-0.6-0.7-1.3-1.1-1.9
			c-0.1-0.1-0.1-0.2-0.3-0.2c-0.1,0-0.2,0-0.3,0c0,0.7,0,1.5,0,2.2c-0.4,0-0.8,0-1.1,0c0-1.8,0-3.5,0-5.3c0,0,0.1,0,0.1,0
			c0.8,0,1.6,0,2.4,0c0.4,0,0.8,0.1,1.1,0.3c0.2,0.2,0.4,0.4,0.5,0.6c0.1,0.4,0.1,0.8,0,1.2c-0.1,0.4-0.4,0.7-0.8,0.8
			C29.5,30,29.4,30,29.3,30z M27.5,27.9c0,0.5,0,0.9,0,1.3c0.4,0,0.9,0,1.3,0c0.3,0,0.5-0.2,0.5-0.6c0-0.3-0.1-0.6-0.4-0.6
			C28.4,27.9,28,27.9,27.5,27.9z"/>
	</g>
</g>
</svg>
