<?xml version="1.0" encoding="utf-8"?>
<!-- Generator: Adobe Illustrator 19.2.1, SVG Export Plug-In . SVG Version: 6.00 Build 0)  -->
<svg version="1.1" id="Слой_1" xmlns="http://www.w3.org/2000/svg" xmlns:xlink="http://www.w3.org/1999/xlink" x="0px" y="0px"
	 viewBox="0 0 40 40" style="enable-background:new 0 0 40 40;" xml:space="preserve">
<style type="text/css">
	.st0{fill:#CC1717;}
	.st1{fill:#FFFFFF;}
</style>
<g>
	<circle id="XMLID_281_" class="st0" cx="20" cy="20" r="19.5"/>
	<g id="XMLID_276_">
		<path id="XMLID_280_" class="st1" d="M26.7,24c1-2.1,2-4.1,2.9-6c0.7-1.6,1.4-3.2,2.3-4.7c0.2-0.4,0.8-0.7,1.2-0.8
			c0.9-0.1,1.8-0.1,2.7,0c0.3,0,0.6,0.1,1,0.2c-0.2,0.3-0.2,0.4-0.3,0.5c-2.1,0.8-2.1,0.8-2.1,3.1c0,2.9,0,5.8,0,8.8
			c0,2,0.1,2.1,2,2.8c0.2,0.1,0.3,0.1,0.4,0.4c-2.4,0.3-4.8,0.3-7.3,0.2c0.3-0.4,0.3-0.6,0.4-0.6C32,27.1,32,27,32,24.9
			c0-2.8,0-5.6-0.3-8.5c-1.9,3.9-3.7,7.9-5.7,12.1c-2-4.1-3.9-8-5.7-11.9c-0.1,0-0.2,0-0.3,0c0,0.5,0,1.1,0,1.6c0,2.3,0,4.6,0,6.9
			c0,2,0.1,2.1,2,2.8c0.1,0,0.2,0.2,0.5,0.5c-2.1,0-3.9,0-5.8,0c0-0.1-0.1-0.2-0.1-0.2c0.2-0.1,0.4-0.3,0.7-0.3
			c1.1-0.1,1.6-0.9,1.6-1.9c0-3.5,0-7,0-10.6c0-1.1-0.5-1.8-1.6-2c-0.2,0-0.4-0.2-0.7-0.3c0-0.2,0-0.3,0-0.5c0.9,0,1.8,0.1,2.7,0
			c1.5-0.2,2.2,0.4,2.7,1.7C23.5,17.4,25.1,20.6,26.7,24z"/>
		<path id="XMLID_277_" class="st1" d="M3.2,28.1c0.2-0.3,0.3-0.5,0.3-0.5c1.9-0.2,2.1-1.5,2-3c-0.1-0.7-0.1-1.4,0-2.1
			c0.1-1.1-0.2-1.9-1.4-2.1c-0.2,0-0.4-0.4-0.6-0.6c0.3,0,0.6-0.1,0.9-0.1c0.3,0,0.6,0.1,1,0.3c0-1.9,0.1-3.6-0.1-5.4
			c0-0.4-0.7-0.9-1.1-1.2c-0.3-0.2-0.7-0.2-1-0.6c0.2-0.1,0.4-0.2,0.6-0.2c2.4,0,4.7-0.1,7.1,0.1c3.2,0.2,4.9,2.5,4.2,5.4
			c-0.4,1.8-2,3.2-4.1,3.4c-1,0.1-2,0-3,0c0,1.7-0.1,3.3,0.1,4.9c0,0.4,0.7,0.8,1.2,1.2c0.3,0.2,0.6,0.3,0.9,0.4
			c0,0.1-0.1,0.2-0.1,0.3C7.9,28.1,5.6,28.1,3.2,28.1z M8,17C8,17,8,17,8,17c0,0.9,0,1.7,0,2.6c0,0.3,0.3,0.7,0.5,0.7
			c1.2,0.2,2.4-0.2,3.2-1.1c1-1.2,1.1-2.5,0.5-3.9c-0.4-1.1-1.3-1.7-2.5-1.8c-1.6-0.1-1.8,0-1.8,1.6C8,15.8,8,16.4,8,17z"/>
	</g>
</g>
</svg>
