<?xml version="1.0" encoding="utf-8"?>
<!-- Generator: Adobe Illustrator 19.2.1, SVG Export Plug-In . SVG Version: 6.00 Build 0)  -->
<svg version="1.1" id="Слой_1" xmlns="http://www.w3.org/2000/svg" xmlns:xlink="http://www.w3.org/1999/xlink" x="0px" y="0px"
	 viewBox="0 0 40 40" style="enable-background:new 0 0 40 40;" xml:space="preserve">
<style type="text/css">
	.st0{fill:#039133;}
</style>
<g id="XMLID_286_">
	<path id="XMLID_288_" class="st0" d="M0.5,19c0-6.3,0-12.2,0-18.5c0.3,0,0.5,0,0.8,0c12.5,0,24.9,0,37.4,0c0.6,0,0.8,0.2,0.8,0.8
		c0,12.5,0,24.9,0,37.4c0,0.3,0,0.5,0,0.8c-6.3,0-12.4,0-18.7,0c0-1.6,0.1-7.9-0.8-10.8c-1.3-4.2-3.5-6.5-7.6-8.2
		C8.8,19,2.5,19,0.5,19z M31.5,19.9c0-3.6,0-7.2,0-10.8c0-0.8,0-0.8-0.8-0.8c-6.2,0-12.3,0-18.5,0c-1.1,0-2.1,0-3.2,0
		C8.5,8.3,8.4,8.5,8.4,9c0,0.7,0.1,3.5,0.1,3.5s4.6,0.3,7,1.2c6.2,2.3,8.7,4.8,11.1,10.9c0.8,1.9,1,2.8,1.2,4.3
		c0.2,1.4,0.1,2.4,0.6,2.4c0.7,0,1.7,0,2.3,0c0.6,0,0.8-0.2,0.7-0.8C31.5,27.1,31.5,23.5,31.5,19.9z"/>
	<path id="XMLID_287_" d="M14.3,39.5c-4.6,0-9.2,0-13.8,0c0-4.6,0-9.2,0-13.8c0.1,0,0.2,0,0.3,0c4.3,0,8.7,0,13,0
		c0.1,0,0.2,0,0.4,0.1c0,0.2,0,0.5,0,0.7c0,4.1,0,8.3,0,12.4C14.3,39,14.3,39.2,14.3,39.5z"/>
</g>
</svg>
