<?xml version="1.0" encoding="utf-8"?>
<!-- Generator: Adobe Illustrator 19.2.1, SVG Export Plug-In . SVG Version: 6.00 Build 0)  -->
<svg version="1.1" id="Слой_1" xmlns="http://www.w3.org/2000/svg" xmlns:xlink="http://www.w3.org/1999/xlink" x="0px" y="0px"
	 viewBox="0 0 40 40" style="enable-background:new 0 0 40 40;" xml:space="preserve">
<style type="text/css">
	.st0{fill:#FC8900;}
</style>
<g id="XMLID_282_">
	<path id="XMLID_285_" class="st0" d="M37.7,40c-2.2-3.3-3.8-5-7.6-5.8c-2.2-0.4-5.9,0-8.1,0.3C15.1,35.2,9.7,34,4.7,28.6
		c-3.2-3.4-4.1-7.7-3.6-12.4C1.9,9,7.6,2.5,15.2,0.6C24.7-1.8,34,3.7,36.1,13c1.2,5.3-0.1,10.1-3.3,14.3c-0.8-1.1-1.4-2.3-2.3-3.3
		c-0.9-1-2.1-1.6-3.5-1.7c1.3-0.5,2.7-0.4,4,0c0.3-1.1,0.3-2.1,0.3-3.3c0-7.1-3.8-13.6-11-14.1C15.1,4.5,9.2,6.8,7.7,11.7
		c-2.6,8.2,1.6,14.7,6.9,17c0.7,0.3,4.2,1.3,4.9,1.4c-0.1-0.9,0.6-2.2,1-3.2c0.6,2.2,2.4,3.7,4.3,4.3c1.5,0.5,3.1,0.6,4.6,0.9
		c4,0.8,6,1.9,8.1,5.5c0.2,0.3,0.8,1.8,1,2.2C38.3,39.9,37.8,40,37.7,40z"/>
	<path id="XMLID_284_" class="st0" d="M26.1,30.1c-1.1-0.2-1.8-0.6-2.1-1.5c-0.2-0.6,0.2-1.5,1.1-1.4c1,0.1,1.6,0.4,2.1,1.2
		C27.7,29.4,26.9,30.2,26.1,30.1z"/>
	<path id="XMLID_283_" class="st0" d="M29.9,26.7c-1.9,0.3-3-1.5-2.5-2.4C29,23.8,30.4,25.5,29.9,26.7z"/>
</g>
</svg>
