<?xml version="1.0" encoding="utf-8"?>
<!-- Generator: Adobe Illustrator 18.1.1, SVG Export Plug-In . SVG Version: 6.00 Build 0)  -->
<svg version="1.1" id="Слой_1" xmlns="http://www.w3.org/2000/svg" xmlns:xlink="http://www.w3.org/1999/xlink" x="0px" y="0px"
	 viewBox="0 0 16 16" enable-background="new 0 0 16 16" xml:space="preserve">
<g>
	<g>
		<g>
			<path fill="#666666" d="M13.9,7.9c0,0.7-0.1,1.4-0.4,2l1.6,0.6c0.3-0.8,0.5-1.7,0.5-2.6V7.8L13.9,7.9z"/>
			<path fill="#666666" d="M11.7,1.4c-0.8-0.4-1.6-0.7-2.4-0.9L9,2.1c0.7,0.1,1.3,0.3,1.9,0.7L11.7,1.4z"/>
			<path fill="#666666" d="M3.6,4.2L2.3,3.1C1.7,3.8,1.3,4.5,1,5.4l1.6,0.6C2.8,5.3,3.1,4.7,3.6,4.2z"/>
			<path fill="#666666" d="M15,5.3c-0.3-0.8-0.7-1.6-1.3-2.2l-1.3,1.1c0.4,0.5,0.8,1.1,1,1.7L15,5.3z"/>
			<path fill="#666666" d="M7,2.2L6.7,0.5C5.8,0.7,5,1,4.3,1.4l0.8,1.4C5.7,2.5,6.3,2.3,7,2.2z"/>
			<path fill="#666666" d="M2.2,7.9l-1.7,0c0,0.9,0.2,1.7,0.5,2.6l1.6-0.6C2.3,9.3,2.2,8.6,2.2,7.9z"/>
			<path fill="#666666" d="M10.9,12.9l0.8,1.4c0.7-0.4,1.4-1,2-1.7l-1.3-1.1C12,12.1,11.5,12.6,10.9,12.9z"/>
			<path fill="#666666" d="M7,13.6l-0.4,1.6c0.9,0.3,1.8,0.3,2.8,0l-0.5-1.6C8.3,13.7,7.6,13.8,7,13.6z"/>
			<path fill="#666666" d="M2.3,12.7c0.6,0.7,1.2,1.2,2,1.7l0.8-1.4c-0.6-0.3-1.1-0.8-1.5-1.3L2.3,12.7z"/>
			<path fill="#666666" d="M8,2.1c-3.2,0-5.7,2.6-5.7,5.7s2.6,5.7,5.7,5.7s5.7-2.6,5.7-5.7S11.2,2.1,8,2.1z M8,10.5
				c-1.5,0-2.6-1.2-2.6-2.7S6.6,5.2,8,5.2s2.6,1.2,2.6,2.7S9.5,10.5,8,10.5z"/>
		</g>
	</g>
</g>
</svg>
