<?xml version="1.0" encoding="utf-8"?>
<!-- Generator: Adobe Illustrator 19.2.0, SVG Export Plug-In . SVG Version: 6.00 Build 0)  -->
<svg version="1.1" id="Слой_1" xmlns="http://www.w3.org/2000/svg" xmlns:xlink="http://www.w3.org/1999/xlink" x="0px" y="0px"
	 viewBox="0 0 27 27" style="enable-background:new 0 0 27 27;" xml:space="preserve">
<style type="text/css">
	.st0{fill:#1469EB;}
</style>
<g>
	<path class="st0" d="M9.3,7h5.9c1.9,0,3.6,0.9,3.6,2.9c0,1.6-0.6,2.2-1.8,2.9c0.1,0.1,0.8,0.3,1,0.4c0.4,0.2,0.6,0.4,0.8,0.6
		c0.7,0.7,0.8,1.3,0.8,2.4c0,2.5-2.4,3.8-4.7,3.8H9.3V7L9.3,7z M12.5,10.4v1.7c1.5,0,2.9,0.2,2.9-1.4c0-1.5-1.6-1.3-2.9-1.3V10.4
		L12.5,10.4z M12.5,17.5c1.7,0,3.7,0.3,3.7-1.6c0-2-2.1-1.6-3.7-1.6L12.5,17.5L12.5,17.5z"/>
</g>
</svg>
